<svg id="Capa_1" enable-background="new 0 0 511.992 511.992" height="512" viewBox="0 0 511.992 511.992" width="512" xmlns="http://www.w3.org/2000/svg"><g><path d="m94.499 463.992v33c0 8.28-6.72 15-15 15s-15-6.72-15-15v-33c0-8.28 6.72-15 15-15s15 6.719 15 15z" fill="#00a763"/><path d="m94.499 463.992v33c0 8.28-6.72 15-15 15v-63c8.28 0 15 6.719 15 15z" fill="#00864f"/><path d="m135.739 226.152c10.14 11.11 22.76 24.95 22.76 53.84 0 26.56-8.8 38.34-16.57 48.72-7.94 10.61-15.43 20.63-15.43 55.28 0 81.36-38.92 93.44-43.36 94.55-3.819.956-7.785.363-11.08-1.53-2.6-1.48-63.56-37.23-63.56-117.02 0-44.99 45.074-79.841 18.52-119.68-33.608-50.392-37.356-106.048.77-153.69 29.1-36.38 36.92-74.16 36.99-74.54 1.998-9.904 12.88-14.916 21.59-10.42 2.95 1.52 72.13 37.84 72.13 94.33 0 29.78-13.22 41.62-23.83 51.13-9.39 8.41-16.17 14.49-16.17 36.87 0 23.259 7.61 31.6 17.24 42.16z" fill="#00ec89"/><path d="m135.739 226.152c10.14 11.11 22.76 24.95 22.76 53.84 0 26.56-8.8 38.34-16.57 48.72-7.94 10.61-15.43 20.63-15.43 55.28 0 81.36-38.92 93.44-43.36 94.55-1.2.3-2.42.45-3.64.45v-478.991c2.36 0 4.72.55 6.87 1.66 2.95 1.52 72.13 37.84 72.13 94.33 0 29.78-13.22 41.62-23.83 51.13-9.39 8.41-16.17 14.49-16.17 36.87 0 23.26 7.61 31.601 17.24 42.161z" fill="#00a763"/><path d="m270.499 463.992v33c0 8.28-6.72 15-15 15s-15-6.72-15-15v-33c0-8.28 6.72-15 15-15s15 6.719 15 15z" fill="#00a763"/><path d="m270.499 463.992v33c0 8.28-6.72 15-15 15v-63c8.28 0 15 6.719 15 15z" fill="#00864f"/><path d="m311.739 226.152c10.14 11.11 22.76 24.95 22.76 53.84 0 26.56-8.8 38.34-16.57 48.72-7.94 10.61-15.43 20.63-15.43 55.28 0 81.36-38.92 93.44-43.36 94.55-3.819.956-7.785.363-11.08-1.53-2.6-1.48-63.56-37.23-63.56-117.02 0-44.99 45.074-79.841 18.52-119.68-33.608-50.392-37.356-106.048.77-153.69 29.1-36.38 36.92-74.16 36.99-74.54 1.998-9.904 12.88-14.916 21.59-10.42 2.95 1.52 72.13 37.84 72.13 94.33 0 29.78-13.22 41.62-23.83 51.13-9.39 8.41-16.17 14.49-16.17 36.87 0 23.259 7.61 31.6 17.24 42.16z" fill="#00ec89"/><path d="m311.739 226.152c10.14 11.11 22.76 24.95 22.76 53.84 0 26.56-8.8 38.34-16.57 48.72-7.94 10.61-15.43 20.63-15.43 55.28 0 81.36-38.92 93.44-43.36 94.55-1.2.3-2.42.45-3.64.45v-478.991c2.36 0 4.72.55 6.87 1.66 2.95 1.52 72.13 37.84 72.13 94.33 0 29.78-13.22 41.62-23.83 51.13-9.39 8.41-16.17 14.49-16.17 36.87 0 23.26 7.61 31.601 17.24 42.161z" fill="#00a763"/><path d="m447.499 463.992v33c0 8.28-6.72 15-15 15s-15-6.72-15-15v-33c0-8.28 6.72-15 15-15s15 6.719 15 15z" fill="#00a763"/><path d="m447.499 463.992v33c0 8.28-6.72 15-15 15v-63c8.28 0 15 6.719 15 15z" fill="#00864f"/><path d="m488.739 226.152c10.14 11.11 22.76 24.95 22.76 53.84 0 26.56-8.8 38.34-16.57 48.72-7.94 10.61-15.43 20.63-15.43 55.28 0 81.36-38.92 93.44-43.36 94.55-3.819.956-7.785.363-11.08-1.53-2.6-1.48-63.56-37.23-63.56-117.02 0-44.99 45.074-79.841 18.52-119.68-33.608-50.392-37.356-106.048.77-153.69 29.1-36.38 36.92-74.16 36.99-74.54 1.998-9.904 12.88-14.916 21.59-10.42 2.95 1.52 72.13 37.84 72.13 94.33 0 29.78-13.22 41.62-23.83 51.13-9.39 8.41-16.17 14.49-16.17 36.87 0 23.259 7.61 31.6 17.24 42.16z" fill="#00ec89"/><path d="m488.739 226.152c10.14 11.11 22.76 24.95 22.76 53.84 0 26.56-8.8 38.34-16.57 48.72-7.94 10.61-15.43 20.63-15.43 55.28 0 81.36-38.92 93.44-43.36 94.55-1.2.3-2.42.45-3.64.45v-478.991c2.36 0 4.72.55 6.87 1.66 2.95 1.52 72.13 37.84 72.13 94.33 0 29.78-13.22 41.62-23.83 51.13-9.39 8.41-16.17 14.49-16.17 36.87 0 23.26 7.61 31.601 17.24 42.161z" fill="#00a763"/></g></svg>